<svg version="1" xmlns="http://www.w3.org/2000/svg" width="1066.667" height="1066.667" viewBox="0 0 800.000000 800.000000"><path d="M310.6 59.4c-3.7 1.3-7.1 2.7-7.5 3.2-.3.5-1.9 1.8-3.5 2.8-7.8 4.9-15.1 13.6-17.6 21-2.5 7-8.7 30.9-9.5 36.6-.3 2.5-1 6.1-1.5 8-.5 1.9-1.1 5.7-1.5 8.5-.3 2.7-.8 6.6-1 8.5-2.6 18.3-2.6 64.4-.1 79 .3 1.4.7 4.7 1.1 7.5.9 7.1 1.5 11.6 2 14.5.3 1.4.7 4.3 1.1 6.5.3 2.2 1.2 7.8 2 12.5 5.3 29.5 5.2 44.8-.2 55.2-6 11.6-23.4 19.9-48.9 23.4-2.2.3-5.3.7-7 .9-17.9 2.6-123.6 2.6-145.9.1-2-.3-6.2 1.3-13.6 5-20.1 10.2-34 21.3-39.1 31.1-3.5 7-3.4 16.1.4 22.5 10.4 17.8 40.3 33.9 92.2 49.9 11.5 3.6 51.9 14.1 58.5 15.2 1.4.3 8.1 1.6 15 3 14.2 2.9 31.6 6.2 37.5 7.1 2.2.3 5.1.8 6.5 1 4.7.8 16.5 2.7 20 3.2 1.9.2 4.6.6 6 .8 1.4.2 5.4.7 9 1.1 3.6.4 7.8.8 9.5 1 1.6.2 6.4.7 10.5 1.1 4.1.3 7.6.7 7.7.8.1 0-1.4 4.2-3.3 9.1-5.2 13.4-17.6 38.1-32.5 64.5-7.2 12.9-16.2 30.5-19.9 39-8.6 19.6-10.5 23.9-17.2 38-3.1 6.3-6.5 13.7-7.8 16.5-1.2 2.7-4.2 9.2-6.6 14.3-2.4 5.1-4.4 9.7-4.4 10.1 0 .5-1.7 3-3.8 5.7-7.2 9.2-8.7 13.5-8.6 25.4 0 8.5.5 11.6 2.4 16.5 6.7 17.3 21.7 31.6 37 35.3 5.5 1.3 17.3.9 22-.9 8.2-2.9 26.7-16.7 37.9-28 11-11.1 19.8-22.2 37.1-46.9 7.9-11.3 17.1-24.1 20.4-28.5 6-7.9 24.4-30.6 25.6-31.5.3-.3 5.1-5.5 10.5-11.5 5.5-6.1 10.4-11.5 11-12.1 22.6-24.2 41.1-47.7 52.4-66.6 2.6-4.5 5.3-7.8 6.2-7.8 3 0 14.4 4.1 23.4 8.5 20.2 9.8 36.8 23 73.1 58.3 26.9 26.3 34.3 33 46.4 42.1 5.4 4 9.4 8 11.1 10.8 10.7 18.2 30.7 24.4 53.7 16.7 32.3-10.8 48.6-40.8 34.3-63.4-1.6-2.5-4.4-8.8-6.1-14-8.7-25.5-22.3-50.6-47.7-88-3.7-5.4-16.9-22.8-22.1-29-3-3.6-7.3-8.7-9.5-11.5-8.5-10.1-29.5-30.2-39.6-37.8-9.9-7.5-12.3-10.1-23.5-25.2-5.7-7.7-5.9-12.3-.9-19.7 6.8-10.2 22.5-25.1 38.3-36.3 3-2.2 5.7-4.2 6-4.5.3-.3 6.8-4.6 14.5-9.6 12.1-7.9 17.7-11.3 25.3-15.9.9-.6 6.2-3.7 11.7-7 5.5-3.3 10.5-6.2 11-6.5.6-.3 3.6-2.1 6.8-4 3.3-1.9 7.3-4.3 9-5.3 33.9-20.2 59.4-36.7 74.7-48.6 31.5-24.4 46.7-48 41.7-64.9-4.7-15.7-14.1-26.9-26.2-31.2-10-3.5-26.7-3.5-39.6.1-2.4.6-4.8 1.2-5.4 1.4-4.3.9-8.6 2.3-19 6.2-6.6 2.5-13.3 5.1-15 5.8-10.6 4.7-32.1 12.7-54.3 20.1-32.5 10.9-51 18.1-63.8 24.9-5.5 3-12.2 5.9-14.8 6.5-11.2 2.5-32.9 12-51.8 22.8-20.1 11.5-42.1 21.2-47.7 21.2-4.4 0-18-5.4-24.4-9.7-16.2-10.8-26.8-31.7-32.1-63-.9-5.1-4.7-27.8-5.2-30.8-.3-1.7-1.4-6.8-2.4-11.3-1.1-4.6-2.2-11-2.5-14.2-2.5-28.4-17.4-53.2-38.7-64.1-2.1-1.1-3.8-1.7-3.8-1.4 0 .3-1 0-2.2-.6-4.3-2.3-15.7-2-23.2.5z"/></svg>